#!OML:ASF E:/inclinewalkrobotboard/Project1/Captureday1/Session1/subject1.ASF
:FULLY-SPECIFIED
:DEGREES
126
root 0 0 0 -1.4155287254365412 21.434173923219742 8.589056472599713
lowerback -4.022290216106337 -6.062162511901111 -6.359543034511591
upperback -8.389264303630549 -7.507173289853247 6.980805881498709
thorax -6.089881805104102 -2.6188466250482527 10.967580462856226
lowerneck -5.599351065374464 -8.874123947480438 -7.669483901716471
upperneck 32.21497563023625 -11.45866068113938 1.8779282785176565
head 12.134640037013316 -5.83333321074974 0.36904340309195127
rclavicle -3.746178176201996E-15 -2.4367934233065642E-15
rhumerus -18.959787138307483 -26.93889664730603 -16.669750438909965
rradius 62.39712490907651
rwrist -12.251961347393099
rhand -26.61942071188192 32.38536731846947
rfingers 7.1250199999999655
rthumb -0.035093066769462666 1.6119944089274263
lclavicle 1.8867984991332038E-16 -3.888783284530583E-15
lhumerus 22.05311653635502 3.268443896893527 42.77811999551784
lradius 63.85687976843832
lwrist -6.770449717610876
lhand -14.23798507429335 7.471126535375699
lfingers 7.125019999999965
lthumb 11.73919751815162 35.63184897154818
rfemur 138.94547027641124 -154.80924656048944 -120.26624458053232
rtibia 28.424620720355534
rfoot -13.943617199545198 -49.623010505099344
rtoes 4.528798876968988
lfemur -82.1000055626339 24.014187165802305 -57.07300858514101
ltibia 68.20903832276097
lfoot 12.560357160109415 31.998067212924106
ltoes 0.12107328525130612
127
root 0 0 0 -1.4106958251840638 21.441336791537065 8.586685626477726
lowerback -4.026777519320347 -6.062457988928308 -6.3591140151608645
upperback -8.390917792013141 -7.507475633047214 6.981613750734814
thorax -6.088797680787685 -2.6191672521521223 10.96819966677246
lowerneck -5.598729200823773 -8.875663960857102 -7.670674062278133
upperneck 32.21890184776335 -11.460825393301576 1.8772317950578532
head 12.136149798466427 -5.834380404593087 0.36882401807490006
rclavicle -3.729740446568349E-15 -2.4270205048826057E-15
rhumerus -18.938348230490476 -26.939307498037756 -16.676565137745413
rradius 62.40031795537651
rwrist -12.261103774186743
rhand -26.617657594304415 32.38241913228675
rfingers 7.1250199999999655
rthumb -0.033428729524636935 1.6092934854404461
lclavicle 2.5209935363201546E-16 -3.866692899573748E-15
lhumerus 22.027546731958534 3.2549261963064238 42.7686983489054
lradius 63.86528528846844
lwrist -6.772226186315278
lhand -14.23716104186539 7.469279514496154
lfingers 7.125019999999965
lthumb 11.739810476682077 35.629201465203295
rfemur 139.04973610818894 -154.92611348266246 -120.37867381671077
rtibia 28.452952075033565
rfoot -13.953927143261058 -49.65242779518353
rtoes 4.555351994197093
lfemur -82.08546198483975 24.018648295863347 -57.07118729955732
ltibia 68.24924250214013
lfoot 12.523702712692138 31.987013491848664
ltoes 0.10012748368180802
128
root 0 0 0 -1.4092384822027526 21.442605344051938 8.585551013676382
lowerback -4.0278691830400035 -6.06252282023668 -6.358526418868154
upperback -8.391408227756804 -7.507536122915868 6.9818765511794965
thorax -6.088604192712211 -2.6192839191177155 10.968137562051417
lowerneck -5.598634308571137 -8.87594791351936 -7.6709467859330545
upperneck 32.21979231665861 -11.461246412516692 1.8771525692909006
head 12.136515373624716 -5.83458232894419 0.3688078838168327
rclavicle -3.723904860731658E-15 -2.4259717062670376E-15
rhumerus -18.933524660587345 -26.93920944042538 -16.678787337125442
rradius 62.400981558891566
rwrist -12.263277114520484
rhand -26.617642178458578 32.38193931698532
rfingers 7.1250199999999655
rthumb -0.033412345184277825 1.6088031923839843
lclavicle 2.649219744478259E-16 -3.862262516723643E-15
lhumerus 22.035585233458296 3.2514518485873234 42.7373305928241
lradius 63.86872279315677
lwrist -6.782197361098932
lhand -14.2200049179503 7.470939413763894
lfingers 7.125019999999965
lthumb 11.756161461521746 35.628255700902315
rfemur 139.1008946662835 -154.97703526788533 -120.43110837477226
rtibia 28.467083659309047
rfoot -13.944312520186415 -49.67864944757541
rtoes 4.569647552246966
lfemur -82.08596096152777 24.023217626997717 -57.05809622204608
ltibia 68.2702180066095
lfoot 12.514177631783017 31.975729458433563
ltoes 0.10542132324872888
129
root 0 0 0 -1.4061780435961388 21.439603441639544 8.583609118977817
lowerback -4.029648314516733 -6.062467941160923 -6.357793984874608
upperback -8.392143857682024 -7.507475751968 6.982003276407074
thorax -6.088286064259894 -2.6193812702494688 10.967873712424176
lowerneck -5.59861811218985 -8.875963092749819 -7.671010599892574
upperneck 32.221025477283725 -11.461536183415395 1.8776613990019448
head 12.137045763315664 -5.834641356306024 0.3689840502945
rclavicle -3.726076893957231E-15 -2.429465124441936E-15
rhumerus -18.92600213313647 -26.93823548286479 -16.67869859180606
rradius 62.4025980678458
rwrist -12.26501267699446
rhand -26.618129208203836 32.38137201627202
rfingers 7.1250199999999655
rthumb -0.033864919779581726 1.6081113283446342
lclavicle 2.516946700376249E-16 -3.8661967033082075E-15
lhumerus 22.087888281966432 3.2592946477738916 42.670850460967
lradius 63.866426624449815
lwrist -6.808904264258444
lhand -14.189463647688715 7.472637343599466
lfingers 7.125019999999965
lthumb 11.785374391917927 35.62599508427813
rfemur 139.17368754021632 -155.04527669524802 -120.50082413540375
rtibia 28.47186320924829
rfoot -13.9279350043245 -49.710872528987814
rtoes 4.584012962326749
lfemur -82.08574573182504 24.026116857525665 -57.0431892371907
ltibia 68.28505284006461
lfoot 12.494639779205439 31.966972860044642
ltoes 0.10831885718312684
